<?xml version="1.0" encoding="utf-8"?>
<!-- Generator: Adobe Illustrator 27.7.0, SVG Export Plug-In . SVG Version: 6.00 Build 0)  -->
<svg version="1.2" baseProfile="tiny" id="Layer_1" xmlns="http://www.w3.org/2000/svg" xmlns:xlink="http://www.w3.org/1999/xlink"
	 x="0px" y="0px" viewBox="0 0 886.7 886.7" overflow="visible" xml:space="preserve">
<path d="M749.4,536.3c-80.2-8.5-94.9-72.4-97.6-92.4c5.1-37.5,22.9-64.6,53-80.6c22.6-12,44.1-13,44.4-13l0.2-5
	c-36.6-4.9-64.2,1.3-82.1,18.3c-21.9,20.9-23.8,52.8-22.6,71.8c-32-4.3-56.5-17.9-73.1-40.7c28.8-37,75.3-39.1,75.8-39.1l0.2-5
	c-40.6-5.4-70,2.7-87.4,24.1c-6.9-15.7-8.7-29.8-9.2-34.8l11.7-2.9l-14.1-1.5c-13.6-1.4-26-4.5-37-9.3
	c21.5-17.4,29.6-46.8,24.2-87.5l-5,0.2c0,0.5-2.1,47-39.2,75.8c-32.4-23.9-39.3-60.7-40.7-73.2c19,1.2,50.9-0.6,71.9-22.6
	c17.1-17.9,23.2-45.5,18.3-82.1l-5,0.2c0,0.2-0.9,21.5-12.8,44c-15.9,30.1-42.9,48.1-80.2,53.3c-37.2-5.2-64.2-23.1-80.1-53.1
	c-12-22.6-12.9-44-12.9-44.2l-5-0.2c-4.9,36.6,1.3,64.2,18.3,82.1c21,22,52.9,23.8,71.9,22.6c-1.4,12.5-8.3,49.3-40.7,73.2
	c-37-28.8-39.1-75.4-39.2-75.8l-5-0.2c-5.4,40.6,2.7,70,24.2,87.5c-11,4.7-23.5,7.8-37,9.3l-16.3,1.7l13.9,2.8
	c-0.5,5.1-2.3,19.1-9.2,34.7c-17.4-21.4-46.8-29.5-87.4-24.1l0.2,5c0.5,0,46.9,2.1,75.8,39.1c-16.6,22.7-41.2,36.4-73.1,40.7
	c1.2-19-0.7-50.9-22.6-71.8c-17.9-17.1-45.5-23.2-82.1-18.3l0.2,5c0.2,0,21.7,0.9,44.4,13c30.1,16,48,43.1,53,80.6
	c-2.6,20-17.4,83.9-97.6,92.4l-16.3,1.7l16.1,3.2c2.1,0.4,50.7,9.8,81.3-17.5c17.6-15.7,25.4-40.1,23.3-72.8
	c12.3,1.4,48.2,8,72.3,39.2c-17.1,27.6-44.6,43.6-81.7,47.6l-16.3,1.7l16.1,3.2c0.7,0.1,17.9,3.5,38.3,0.7
	c25.4-3.4,44.5-14.9,55.4-33.4c4.9,11,8.2,23.4,9.8,37l-7.2,3.6l6.9,0.3l-0.1,0.6l3.2-0.4c2,0.1,19.1,1.3,38.3,10
	c-18.4,11-29.9,30-33.3,55.4c-2.7,20.4,0.6,37.5,0.7,38.3l3.2,16.1l1.7-16.3c3.9-37.1,19.9-64.5,47.5-81.6
	c21.9,16.6,35,40.9,39.1,72.2c-32.6-2.1-57,5.7-72.6,23.3c-27.3,30.6-17.9,79.2-17.5,81.3l3.2,16.1l1.7-16.3
	c8.5-80.7,72.9-95.1,93-97.6c20.1,2.5,84.5,16.9,93,97.6l1.7,16.3l3.2-16.1c0.4-2.1,9.8-50.7-17.5-81.3
	c-15.6-17.6-40.1-25.4-72.6-23.3c4.1-31.3,17.3-55.6,39.1-72.2c27.6,17.1,43.6,44.6,47.5,81.6l1.7,16.3l3.2-16.1
	c0.1-0.7,3.5-17.8,0.7-38.3c-3.4-25.4-14.9-44.5-33.3-55.4c16.3-7.4,31-9.4,36.4-9.9l2.8,13.9l1.7-16.3c1.5-14.3,4.9-27.3,10-38.7
	c10.9,18.4,30,29.9,55.4,33.4c20.5,2.8,37.6-0.6,38.3-0.7l16.1-3.2l-16.3-1.7c-37.1-3.9-64.6-19.9-81.7-47.6
	c24.1-31.3,60-37.9,72.3-39.2c-2.1,32.6,5.7,57.1,23.3,72.8c30.6,27.3,79.3,17.9,81.3,17.5l16.1-3.2L749.4,536.3z M492.8,337.3
	c21.9,7.3,44.4,5.1,52.8,3.9c-2.4,20.6-1.2,38.5,3.7,53.1c-5.7,14.7-6.7,30.2-6.4,41.6c-71.9-13.2-84.3-74-86.4-92
	C469.9,343.6,482.1,341.4,492.8,337.3z M443.2,517.9c-1.9-15.5-7.1-33.1-20-46.5c-14-14.6-34.4-21.9-61-21.9
	c-6.2,0-12.8,0.4-19.7,1.2c0.2-1.7,0.5-4.1,0.8-6.9c16.4,1.3,51.2,0.8,73.4-22c16.7-17.1,23.2-43.3,19.3-78c2.4-0.1,4.8-0.2,7.2-0.4
	c2.4,0.2,4.8,0.3,7.2,0.4c-3.8,34.6,2.6,60.9,19.3,78c22.2,22.8,57,23.3,73.4,22c0.2,2.8,0.5,5.2,0.8,6.9
	c-36.3-4.3-63.4,2.7-80.6,20.6C450.4,484.9,445.1,502.4,443.2,517.9z M443.7,550.9c-0.1,0-0.3,0-0.4,0c-0.1,0-0.3,0-0.4,0
	c0.1-0.9,0.3-1.9,0.4-3.1C443.4,549,443.6,550,443.7,550.9z M441.4,241.3c0.7-0.1,1.3-0.1,1.9-0.2c0.6,0.1,1.2,0.1,1.9,0.2
	c-4.6,40.1,4.5,68.9,27,85.5c-8.8,4-18.5,7-28.9,8.8c-10.4-1.9-20.1-4.8-28.9-8.8C437,310.2,446,281.4,441.4,241.3z M341,341.2
	c8.4,1.2,30.9,3.4,52.8-3.9c10.7,4.2,22.9,6.4,36.3,6.6c-1,8.1-4.2,26.3-15.2,44.6c-15.3,25.6-39.2,41.5-71.2,47.4
	c0.3-11.4-0.7-26.9-6.4-41.6C342.2,379.6,343.4,361.8,341,341.2z M337,453.5l-0.4,1.9c-0.2-3.5-0.4-7.1-0.9-10.8
	C336.3,447.5,336.7,450.4,337,453.5z M332.5,437.4l-16.4,1.7l14,2.8c-0.4,4.3-1.7,14.6-6,26.8c-14-16.4-35.2-24.7-63.4-24.7
	c-6.2,0-12.7,0.4-19.5,1.2c0-0.4-0.1-0.8-0.1-1.2c0.1-0.8,0.2-1.6,0.3-2.4c14.5,2,60.9,5.5,85.6-27c3.2,7,5.7,14.6,7.5,22.7
	C333.7,437.3,333.1,437.4,332.5,437.4z M401.1,551.9c-11.3-5-24.8-7.5-40.3-7.5c-6.2,0-12.8,0.4-19.6,1.2c1.3-9.3,3.8-36-6.5-59.6
	c1.8-8.9,2.5-18.7,2.1-29.5l0.6-0.1l1.6,16.1l2.7-16.3c6.1,0.6,24.3,3.1,43,13.3c29.8,16.2,47.4,43.4,52.3,80.9
	C423.7,549.3,411.7,549.8,401.1,551.9z M445.1,645.6c-0.6,0.1-1.2,0.1-1.8,0.2c-0.6-0.1-1.2-0.1-1.8-0.2c2-13.9,5.4-57.6-23.6-83
	c11-3.9,20.4-5.3,25.4-5.9c5,0.5,14.4,2,25.4,5.9C439.7,587.9,443.2,631.6,445.1,645.6z M545.5,545.6c-24-2.8-44.2-0.7-60,6.3
	c-7-1.4-14.7-2.1-23-2.1c-4.2,0-8.5,0.2-12.9,0.5c4.9-37.5,22.5-64.7,52.3-80.9c18.8-10.2,37.1-12.7,43.1-13.3l2.8,13.9l1.7-16.3
	c0.3-3.2,0.8-6.3,1.3-9.3c-1.7,15.5-1.3,29.4,1.2,41.4C541.6,509.8,544.1,536.3,545.5,545.6z M645.5,445.3
	c-38.1-4.4-65.9,3.5-82.9,23.5c-4.3-12.3-5.7-22.6-6.1-26.8l13.8-2.8l-16.2-1.7c-0.6-0.1-1.3-0.1-1.9-0.2c1.8-8.1,4.4-15.7,7.5-22.7
	c24.7,32.5,71,29,85.6,27c0.1,0.8,0.2,1.6,0.3,2.4C645.6,444.4,645.6,444.8,645.5,445.3z"/>
</svg>
